<svg width="18" height="18" viewBox="0 0 18 18" fill="none" xmlns="http://www.w3.org/2000/svg">
<path fill-rule="evenodd" clip-rule="evenodd" d="M8.99181 0.666626C4.39181 0.666626 0.666809 4.39996 0.666809 8.99996C0.666809 13.6 4.39181 17.3333 8.99181 17.3333C13.6001 17.3333 17.3335 13.6 17.3335 8.99996C17.3335 4.39996 13.6001 0.666626 8.99181 0.666626ZM9.0003 15.6666C5.31697 15.6666 2.33364 12.6833 2.33364 8.99996C2.33364 5.31662 5.31697 2.33329 9.0003 2.33329C12.6836 2.33329 15.667 5.31662 15.667 8.99996C15.667 12.6833 12.6836 15.6666 9.0003 15.6666ZM8.16681 4.83329H9.41681V9.20829L13.1668 11.4333L12.5418 12.4583L8.16681 9.83329V4.83329Z" fill="#2F80ED"/>
</svg>
