<svg width="24" height="24" viewBox="0 0 24 24" fill="none" xmlns="http://www.w3.org/2000/svg">
<path fill-rule="evenodd" clip-rule="evenodd" d="M11.413 16.9964L7 17.0114V12.5814L16.634 3.03944C17.384 2.29044 18.703 2.28644 19.459 3.04244L21.045 4.62844C21.423 5.00644 21.631 5.50844 21.631 6.04244C21.631 6.57644 21.423 7.07844 21.045 7.45644L11.413 16.9964ZM19.634 6.03944L18.045 4.45644L16.451 6.03644L18.037 7.62144L19.634 6.03944ZM15.03 7.44244L9 13.4154V15.0044L10.587 14.9994L16.616 9.02844L15.03 7.44244ZM19 20.9984H5C3.897 20.9984 3 20.1014 3 18.9984V4.99841C3 3.89541 3.897 2.99841 5 2.99841H13.847L11.847 4.99841H5V18.9984H7.979C7.99515 18.9989 8.01108 19.0012 8.02688 19.0034C8.04435 19.0059 8.06168 19.0084 8.079 19.0084C8.092 19.0084 8.10525 19.0059 8.1185 19.0034C8.13175 19.0009 8.145 18.9984 8.158 18.9984H19V12.3304L21 10.3304V18.9984C21 20.1014 20.103 20.9984 19 20.9984Z"/>
</svg>
